<svg xmlns="http://www.w3.org/2000/svg" width="1200" height="370"
        viewBox="0 0 1200 370" role="img"
        aria-label="Twelve-month GitHub contribution activity">
      <rect width="1200" height="370" rx="22" fill="#F8FAFC"/>
      <rect x="1" y="1" width="1198" height="368" rx="21"
            fill="none" stroke="#CBD5E1"/>
      <circle cx="42" cy="44" r="8" fill="#0369A1"/>
      <text x="64" y="50" fill="#0F172A" font-size="24" font-weight="750">
        Twelve-month contribution activity
      </text>
      <text x="64" y="73" fill="#475569" font-size="14">
        Public GitHub contributions aggregated by month
      </text>
      <text x="1118" y="44" text-anchor="end" fill="#0F172A"
            font-size="22" font-weight="750">234</text>
      <text x="1118" y="65" text-anchor="end" fill="#475569"
            font-size="12">TOTAL CONTRIBUTIONS</text>
      
            <line x1="80" y1="100.0" x2="1120"
                  y2="100.0" stroke="#E2E8F0" stroke-width="1"/>
            <text x="62" y="105.0" text-anchor="end"
                  fill="#475569" font-size="12">124</text>
            
            <line x1="80" y1="147.5" x2="1120"
                  y2="147.5" stroke="#E2E8F0" stroke-width="1"/>
            <text x="62" y="152.5" text-anchor="end"
                  fill="#475569" font-size="12">93</text>
            
            <line x1="80" y1="195.0" x2="1120"
                  y2="195.0" stroke="#E2E8F0" stroke-width="1"/>
            <text x="62" y="200.0" text-anchor="end"
                  fill="#475569" font-size="12">62</text>
            
            <line x1="80" y1="242.5" x2="1120"
                  y2="242.5" stroke="#E2E8F0" stroke-width="1"/>
            <text x="62" y="247.5" text-anchor="end"
                  fill="#475569" font-size="12">31</text>
            
            <line x1="80" y1="290.0" x2="1120"
                  y2="290.0" stroke="#E2E8F0" stroke-width="1"/>
            <text x="62" y="295.0" text-anchor="end"
                  fill="#475569" font-size="12">0</text>
            
      <path d="M 80.0 288.5 L 174.5 268.5 L 269.1 265.5 L 363.6 254.8 L 458.2 270.1 L 552.7 276.2 L 647.3 279.3 L 741.8 273.1 L 836.4 286.9 L 930.9 290.0 L 1025.5 100.0 L 1120.0 268.5" fill="none" stroke="#0F766E" stroke-width="4"
            stroke-linecap="round" stroke-linejoin="round"/>
      <circle cx="80.0" cy="288.5" r="4.5" fill="#F8FAFC" stroke="#0F766E" stroke-width="3"/><circle cx="174.5" cy="268.5" r="4.5" fill="#F8FAFC" stroke="#0F766E" stroke-width="3"/><circle cx="269.1" cy="265.5" r="4.5" fill="#F8FAFC" stroke="#0F766E" stroke-width="3"/><circle cx="363.6" cy="254.8" r="4.5" fill="#F8FAFC" stroke="#0F766E" stroke-width="3"/><circle cx="458.2" cy="270.1" r="4.5" fill="#F8FAFC" stroke="#0F766E" stroke-width="3"/><circle cx="552.7" cy="276.2" r="4.5" fill="#F8FAFC" stroke="#0F766E" stroke-width="3"/><circle cx="647.3" cy="279.3" r="4.5" fill="#F8FAFC" stroke="#0F766E" stroke-width="3"/><circle cx="741.8" cy="273.1" r="4.5" fill="#F8FAFC" stroke="#0F766E" stroke-width="3"/><circle cx="836.4" cy="286.9" r="4.5" fill="#F8FAFC" stroke="#0F766E" stroke-width="3"/><circle cx="930.9" cy="290.0" r="4.5" fill="#F8FAFC" stroke="#0F766E" stroke-width="3"/><circle cx="1025.5" cy="100.0" r="4.5" fill="#F8FAFC" stroke="#0F766E" stroke-width="3"/><circle cx="1120.0" cy="268.5" r="4.5" fill="#F8FAFC" stroke="#0F766E" stroke-width="3"/>
      
            <text x="80.0" y="320"
                  text-anchor="middle" fill="#475569" font-size="12">
              Sep
            </text>
            
            <text x="174.5" y="320"
                  text-anchor="middle" fill="#475569" font-size="12">
              Oct
            </text>
            
            <text x="269.1" y="320"
                  text-anchor="middle" fill="#475569" font-size="12">
              Nov
            </text>
            
            <text x="363.6" y="320"
                  text-anchor="middle" fill="#475569" font-size="12">
              Dec
            </text>
            
            <text x="458.2" y="320"
                  text-anchor="middle" fill="#475569" font-size="12">
              Jan 26
            </text>
            
            <text x="552.7" y="320"
                  text-anchor="middle" fill="#475569" font-size="12">
              Feb
            </text>
            
            <text x="647.3" y="320"
                  text-anchor="middle" fill="#475569" font-size="12">
              Mar
            </text>
            
            <text x="741.8" y="320"
                  text-anchor="middle" fill="#475569" font-size="12">
              Apr
            </text>
            
            <text x="836.4" y="320"
                  text-anchor="middle" fill="#475569" font-size="12">
              May
            </text>
            
            <text x="930.9" y="320"
                  text-anchor="middle" fill="#475569" font-size="12">
              Jun
            </text>
            
            <text x="1025.5" y="320"
                  text-anchor="middle" fill="#475569" font-size="12">
              Jul
            </text>
            
            <text x="1120.0" y="320"
                  text-anchor="middle" fill="#475569" font-size="12">
              Aug
            </text>
            
      <text x="80" y="350" fill="#475569" font-size="12">
        Peak month: Jul 2026 · 124 contribution(s)
      </text>
    </svg>
    