<svg xmlns="http://www.w3.org/2000/svg" width="1200" height="370" viewBox="0 0 1200 370" role="img" aria-label="Activity chart pending first workflow run">
  <rect width="1200" height="370" rx="22" fill="#0B1220"/>
  <rect x="1" y="1" width="1198" height="368" rx="21" fill="none" stroke="#26344D"/>
  <circle cx="42" cy="44" r="8" fill="#38BDF8"/>
  <text x="64" y="50" fill="#F8FAFC" font-family="Inter,Segoe UI,Arial,sans-serif" font-size="24" font-weight="750">Twelve-month contribution activity</text>
  <text x="64" y="76" fill="#A8B3C7" font-family="Inter,Segoe UI,Arial,sans-serif" font-size="15">Live contribution data will appear after the first workflow run.</text>
  <g stroke="#22314A" stroke-width="1">
    <line x1="80" y1="118" x2="1120" y2="118"/>
    <line x1="80" y1="168" x2="1120" y2="168"/>
    <line x1="80" y1="218" x2="1120" y2="218"/>
    <line x1="80" y1="268" x2="1120" y2="268"/>
  </g>
  <path d="M 80 260 L 175 246 L 269 252 L 364 210 L 458 229 L 553 190 L 647 205 L 742 157 L 836 181 L 931 142 L 1025 164 L 1120 118"
        fill="none" stroke="#14B8A6" stroke-width="4" stroke-linecap="round" stroke-linejoin="round"/>
  <g fill="#0B1220" stroke="#14B8A6" stroke-width="3">
    <circle cx="80" cy="260" r="4.5"/><circle cx="175" cy="246" r="4.5"/>
    <circle cx="269" cy="252" r="4.5"/><circle cx="364" cy="210" r="4.5"/>
    <circle cx="458" cy="229" r="4.5"/><circle cx="553" cy="190" r="4.5"/>
    <circle cx="647" cy="205" r="4.5"/><circle cx="742" cy="157" r="4.5"/>
    <circle cx="836" cy="181" r="4.5"/><circle cx="931" cy="142" r="4.5"/>
    <circle cx="1025" cy="164" r="4.5"/><circle cx="1120" cy="118" r="4.5"/>
  </g>
  <text x="600" y="327" text-anchor="middle" fill="#A8B3C7" font-family="Inter,Segoe UI,Arial,sans-serif" font-size="13">Illustrative placeholder — generated locally, not loaded from a public statistics service</text>
</svg>
